<svg width="24" height="24" viewBox="0 0 24 24" fill="none" xmlns="http://www.w3.org/2000/svg">
<path d="M20.1112 15.5737C20.147 15.7257 20.166 15.884 20.166 16.0467C20.166 17.1827 19.2453 18.1036 18.1093 18.1036C17.017 18.1036 16.1235 17.252 16.0565 16.1765L16.751 16.0737C16.7651 16.8107 17.3692 17.4057 18.1093 17.4057C18.8584 17.4057 19.4681 16.7961 19.4681 16.0467C19.4681 15.9184 19.4502 15.7946 19.4171 15.6769L20.1112 15.5737Z" fill="black"/>
<path d="M5.89689 15.5166C5.99867 15.4511 6.11982 15.4131 6.24988 15.4131C6.43504 15.4131 6.60227 15.4901 6.72129 15.6138C6.79495 15.6904 6.85017 15.7849 6.87964 15.8902C6.89539 15.9464 6.90381 16.0057 6.90381 16.0669C6.90381 16.4281 6.61106 16.7209 6.24988 16.7209C5.88878 16.7209 5.59603 16.4281 5.59603 16.0669C5.59603 16.0057 5.60445 15.9464 5.62019 15.8902C5.66387 15.7343 5.76391 15.602 5.89689 15.5166Z" fill="black"/>
<path d="M17.4573 16.067C17.4573 16.0332 17.46 15.9999 17.4648 15.9674L18.7004 15.7837C18.717 15.8177 18.7304 15.8532 18.7408 15.8903C18.7565 15.9467 18.7649 16.0058 18.7649 16.067C18.7649 16.4282 18.4723 16.721 18.1111 16.721C17.7499 16.721 17.4573 16.4282 17.4573 16.067Z" fill="black"/>
<path d="M4.94286 12.6082C4.93314 11.78 5.10757 11.0785 5.70572 11.0024C7.24134 10.8069 10.1172 10.6674 9.97746 11.6725C9.83793 12.6775 8.60941 13.8224 8.91654 14.3708C9.22367 14.919 13.6071 14.8833 14.2773 14.4925C14.9474 14.1017 15.757 11.3095 15.1428 9.57798C14.9291 8.97505 14.8644 8.44732 14.8706 8.01486H14.2072C14.1406 8.09168 14.0426 8.1405 13.9329 8.1405H12.6858C12.4854 8.1405 12.3229 7.978 12.3229 7.77755C12.3229 7.57708 12.4854 7.41457 12.6858 7.41457H13.9329C14.0426 7.41457 14.1406 7.46339 14.2072 7.54021H14.924C14.9824 7.34108 15.0939 7.16574 15.2419 7.02956C15.2911 6.9843 15.3441 6.94345 15.4009 6.90745C15.5084 6.31883 15.88 5.896 16.3342 5.896C16.8751 5.896 17.2988 6.49568 17.2988 7.26097C17.2988 7.91608 16.9886 8.44952 16.5601 8.58971C16.7813 8.87963 17.0743 9.20574 17.4603 9.56963C18.8182 10.8494 19.0372 12.4221 19.0235 13.3697C19.6414 13.6265 20.1335 14.1487 20.3368 14.8153C20.3899 14.9893 20.2753 15.1697 20.0954 15.1965L19.9895 15.2123L19.2573 15.3211L18.8652 15.3794L17.9445 15.5163L16.799 15.6867L16.0675 15.7954L15.9613 15.8112C15.7825 15.8378 15.6194 15.7004 15.6195 15.5197C15.6195 15.5185 15.6195 15.5174 15.6195 15.5163H8.21132C8.26033 15.6914 8.28661 15.8759 8.28661 16.0667C8.28661 17.1917 7.37473 18.1036 6.24976 18.1036C5.12502 18.1036 4.21314 17.1917 4.21314 16.0667C4.21314 15.8759 4.23942 15.6914 4.28843 15.5163H4.26172C4.03321 15.5163 3.82876 15.3712 3.75589 15.1544C3.68723 14.9504 3.65012 14.732 3.65012 14.5048C3.6501 13.6426 4.186 12.9054 4.94286 12.6082ZM16.1781 8.00394C16.2287 8.0492 16.2823 8.07392 16.3342 8.07392C16.529 8.07392 16.7469 7.72616 16.7469 7.26095C16.7469 6.79573 16.529 6.44795 16.3342 6.44795C16.1423 6.44795 15.9277 6.78601 15.9218 7.24129C15.9215 7.2477 15.9215 7.25432 15.9215 7.26095C15.9215 7.60208 16.0388 7.88008 16.1781 8.00394ZM6.24976 17.4105C6.99073 17.4105 7.59354 16.8077 7.59354 16.0668C7.59354 15.8709 7.55137 15.6846 7.47563 15.5163H7.45487C7.45861 15.5097 7.4626 15.5028 7.46634 15.4962C7.2513 15.0399 6.78673 14.7232 6.24976 14.7232C5.88764 14.7232 5.55868 14.867 5.31688 15.1008C5.19479 15.2187 5.09497 15.3596 5.02432 15.5163C4.94836 15.6846 4.90621 15.8709 4.90621 16.0668C4.90621 16.8077 5.509 17.4105 6.24976 17.4105Z" fill="black"/>
<path d="M13.1848 14.3401C12.7805 14.3807 12.2551 14.4097 11.6291 14.4097C10.29 14.4097 9.46042 14.2717 9.24272 14.1628C9.24382 14.1281 9.25553 14.054 9.31424 13.9175C9.39109 13.74 9.51581 13.5293 9.64964 13.3057C10.4343 13.887 11.6516 13.7561 12.3228 13.8016C12.8145 13.8349 13.0612 14.0922 13.1848 14.3401Z" fill="black"/>
<path d="M5.51638 10.6573L5.79391 10.2793C5.97187 10.0371 6.24653 9.88518 6.54617 9.8631C7.04825 9.82602 7.85175 9.79621 8.49535 9.90814C9.08136 10.0101 9.35868 10.384 9.48828 10.682C9.07253 10.5522 8.50311 10.4884 7.77159 10.4884C6.90298 10.4884 6.07476 10.5774 5.65834 10.6304C5.61151 10.6363 5.56407 10.6452 5.51638 10.6573Z" fill="black"/>
</svg>
